<mxfile host="app.diagrams.net" agent="Mozilla/5.0 (Windows NT 10.0; Win64; x64) AppleWebKit/537.36 (KHTML, like Gecko) Chrome/129.0.0.0 Safari/537.36" version="24.8.6">
  <diagram id="R2lEEEUBdFMjLlhIrx00" name="Page-1">
    <mxGraphModel dx="775" dy="1517" grid="1" gridSize="10" guides="1" tooltips="1" connect="1" arrows="1" fold="1" page="1" pageScale="1" pageWidth="850" pageHeight="1100" math="0" shadow="0" extFonts="Permanent Marker^https://fonts.googleapis.com/css?family=Permanent+Marker">
      <root>
        <mxCell id="0" />
        <mxCell id="1" parent="0" />
        <mxCell id="zaPjLl4jsTZHQY9-oWPF-65" style="edgeStyle=orthogonalEdgeStyle;rounded=0;orthogonalLoop=1;jettySize=auto;html=1;exitX=0.001;exitY=0.403;exitDx=0;exitDy=0;exitPerimeter=0;" parent="1" edge="1">
          <mxGeometry relative="1" as="geometry">
            <mxPoint x="434.88" y="516" as="targetPoint" />
            <mxPoint x="470" y="545.3600000000001" as="sourcePoint" />
            <Array as="points">
              <mxPoint x="468" y="545" />
              <mxPoint x="435" y="546" />
            </Array>
          </mxGeometry>
        </mxCell>
        <mxCell id="mfPcfbEMldCuhAB-tBuz-3" style="edgeStyle=orthogonalEdgeStyle;rounded=0;orthogonalLoop=1;jettySize=auto;html=1;exitX=0.5;exitY=0;exitDx=0;exitDy=0;" parent="1" edge="1">
          <mxGeometry relative="1" as="geometry">
            <mxPoint x="485" y="461" as="targetPoint" />
            <mxPoint x="485" y="481" as="sourcePoint" />
          </mxGeometry>
        </mxCell>
        <mxCell id="zaPjLl4jsTZHQY9-oWPF-71" style="edgeStyle=orthogonalEdgeStyle;rounded=0;orthogonalLoop=1;jettySize=auto;html=1;exitX=0.25;exitY=0;exitDx=0;exitDy=0;" parent="1" source="zaPjLl4jsTZHQY9-oWPF-61" edge="1">
          <mxGeometry relative="1" as="geometry">
            <mxPoint x="500.15151515151524" y="480.72727272727275" as="targetPoint" />
          </mxGeometry>
        </mxCell>
        <mxCell id="zaPjLl4jsTZHQY9-oWPF-78" style="edgeStyle=orthogonalEdgeStyle;rounded=0;orthogonalLoop=1;jettySize=auto;html=1;exitX=0.5;exitY=0;exitDx=0;exitDy=0;" parent="1" source="zaPjLl4jsTZHQY9-oWPF-61" edge="1">
          <mxGeometry relative="1" as="geometry">
            <mxPoint x="529.848484848485" y="436" as="targetPoint" />
          </mxGeometry>
        </mxCell>
        <mxCell id="zaPjLl4jsTZHQY9-oWPF-79" style="edgeStyle=orthogonalEdgeStyle;rounded=0;orthogonalLoop=1;jettySize=auto;html=1;exitX=0.75;exitY=0;exitDx=0;exitDy=0;" parent="1" source="zaPjLl4jsTZHQY9-oWPF-61" edge="1">
          <mxGeometry relative="1" as="geometry">
            <mxPoint x="580" y="456" as="targetPoint" />
            <Array as="points">
              <mxPoint x="580" y="481" />
              <mxPoint x="580" y="456" />
            </Array>
          </mxGeometry>
        </mxCell>
        <mxCell id="zaPjLl4jsTZHQY9-oWPF-81" style="edgeStyle=orthogonalEdgeStyle;rounded=0;orthogonalLoop=1;jettySize=auto;html=1;exitX=1;exitY=0.5;exitDx=0;exitDy=0;" parent="1" edge="1">
          <mxGeometry relative="1" as="geometry">
            <mxPoint x="640" y="510.72727272727275" as="targetPoint" />
            <mxPoint x="590" y="511" as="sourcePoint" />
          </mxGeometry>
        </mxCell>
        <mxCell id="zaPjLl4jsTZHQY9-oWPF-82" style="edgeStyle=orthogonalEdgeStyle;rounded=0;orthogonalLoop=1;jettySize=auto;html=1;exitX=1;exitY=0.75;exitDx=0;exitDy=0;" parent="1" edge="1">
          <mxGeometry relative="1" as="geometry">
            <mxPoint x="620" y="565" as="targetPoint" />
            <Array as="points">
              <mxPoint x="590" y="565" />
              <mxPoint x="620" y="565" />
            </Array>
            <mxPoint x="590" y="560" as="sourcePoint" />
          </mxGeometry>
        </mxCell>
        <mxCell id="zaPjLl4jsTZHQY9-oWPF-83" style="edgeStyle=orthogonalEdgeStyle;rounded=0;orthogonalLoop=1;jettySize=auto;html=1;exitX=0.75;exitY=1;exitDx=0;exitDy=0;" parent="1" edge="1">
          <mxGeometry relative="1" as="geometry">
            <mxPoint x="490" y="626" as="targetPoint" />
            <mxPoint x="490" y="601" as="sourcePoint" />
          </mxGeometry>
        </mxCell>
        <mxCell id="zaPjLl4jsTZHQY9-oWPF-61" value="Candidato" style="whiteSpace=wrap;html=1;aspect=fixed;" parent="1" vertex="1">
          <mxGeometry x="470" y="481" width="120" height="120" as="geometry" />
        </mxCell>
        <mxCell id="zaPjLl4jsTZHQY9-oWPF-21" value="Candidato" style="shape=table;startSize=30;container=1;collapsible=1;childLayout=tableLayout;fixedRows=1;rowLines=0;fontStyle=1;align=center;resizeLast=1;" parent="1" vertex="1">
          <mxGeometry x="70" y="384" width="250" height="256" as="geometry" />
        </mxCell>
        <mxCell id="zaPjLl4jsTZHQY9-oWPF-22" value="" style="shape=partialRectangle;collapsible=0;dropTarget=0;pointerEvents=0;fillColor=none;points=[[0,0.5],[1,0.5]];portConstraint=eastwest;top=0;left=0;right=0;bottom=1;" parent="zaPjLl4jsTZHQY9-oWPF-21" vertex="1">
          <mxGeometry y="30" width="250" height="30" as="geometry" />
        </mxCell>
        <mxCell id="zaPjLl4jsTZHQY9-oWPF-23" value="PK" style="shape=partialRectangle;overflow=hidden;connectable=0;fillColor=none;top=0;left=0;bottom=0;right=0;fontStyle=1;" parent="zaPjLl4jsTZHQY9-oWPF-22" vertex="1">
          <mxGeometry width="30" height="30" as="geometry">
            <mxRectangle width="30" height="30" as="alternateBounds" />
          </mxGeometry>
        </mxCell>
        <mxCell id="zaPjLl4jsTZHQY9-oWPF-24" value="id_candidato int NOT NULL" style="shape=partialRectangle;overflow=hidden;connectable=0;fillColor=none;top=0;left=0;bottom=0;right=0;align=left;spacingLeft=6;fontStyle=5;" parent="zaPjLl4jsTZHQY9-oWPF-22" vertex="1">
          <mxGeometry x="30" width="220" height="30" as="geometry">
            <mxRectangle width="220" height="30" as="alternateBounds" />
          </mxGeometry>
        </mxCell>
        <mxCell id="zaPjLl4jsTZHQY9-oWPF-25" value="" style="shape=partialRectangle;collapsible=0;dropTarget=0;pointerEvents=0;fillColor=none;points=[[0,0.5],[1,0.5]];portConstraint=eastwest;top=0;left=0;right=0;bottom=0;" parent="zaPjLl4jsTZHQY9-oWPF-21" vertex="1">
          <mxGeometry y="60" width="250" height="30" as="geometry" />
        </mxCell>
        <mxCell id="zaPjLl4jsTZHQY9-oWPF-26" value="" style="shape=partialRectangle;overflow=hidden;connectable=0;fillColor=none;top=0;left=0;bottom=0;right=0;" parent="zaPjLl4jsTZHQY9-oWPF-25" vertex="1">
          <mxGeometry width="30" height="30" as="geometry">
            <mxRectangle width="30" height="30" as="alternateBounds" />
          </mxGeometry>
        </mxCell>
        <mxCell id="zaPjLl4jsTZHQY9-oWPF-27" value="" style="shape=partialRectangle;overflow=hidden;connectable=0;fillColor=none;top=0;left=0;bottom=0;right=0;align=left;spacingLeft=6;" parent="zaPjLl4jsTZHQY9-oWPF-25" vertex="1">
          <mxGeometry x="30" width="220" height="30" as="geometry">
            <mxRectangle width="220" height="30" as="alternateBounds" />
          </mxGeometry>
        </mxCell>
        <mxCell id="zaPjLl4jsTZHQY9-oWPF-28" value="Telefone varchar(20)" style="shape=partialRectangle;overflow=hidden;connectable=0;fillColor=none;top=0;left=0;bottom=0;right=0;align=left;spacingLeft=6;" parent="1" vertex="1">
          <mxGeometry x="100" y="474" width="220" height="30" as="geometry">
            <mxRectangle width="220" height="30" as="alternateBounds" />
          </mxGeometry>
        </mxCell>
        <mxCell id="zaPjLl4jsTZHQY9-oWPF-29" value="Email varchar(50) NOT NULL" style="shape=partialRectangle;overflow=hidden;connectable=0;fillColor=none;top=0;left=0;bottom=0;right=0;align=left;spacingLeft=6;" parent="1" vertex="1">
          <mxGeometry x="100" y="504" width="220" height="30" as="geometry">
            <mxRectangle width="220" height="30" as="alternateBounds" />
          </mxGeometry>
        </mxCell>
        <mxCell id="zaPjLl4jsTZHQY9-oWPF-30" value="" style="endArrow=none;html=1;rounded=0;entryX=0.121;entryY=1.031;entryDx=0;entryDy=0;entryPerimeter=0;" parent="1" edge="1">
          <mxGeometry width="50" height="50" relative="1" as="geometry">
            <mxPoint x="100" y="630" as="sourcePoint" />
            <mxPoint x="100" y="474.00000000000006" as="targetPoint" />
          </mxGeometry>
        </mxCell>
        <mxCell id="zaPjLl4jsTZHQY9-oWPF-34" value="EndereÃ§o varchar(200)" style="shape=partialRectangle;overflow=hidden;connectable=0;fillColor=none;top=0;left=0;bottom=0;right=0;align=left;spacingLeft=6;" parent="1" vertex="1">
          <mxGeometry x="100" y="534" width="220" height="30" as="geometry">
            <mxRectangle width="220" height="30" as="alternateBounds" />
          </mxGeometry>
        </mxCell>
        <mxCell id="zaPjLl4jsTZHQY9-oWPF-39" value="Competencias text NOT NULL" style="shape=partialRectangle;overflow=hidden;connectable=0;fillColor=none;top=0;left=0;bottom=0;right=0;align=left;spacingLeft=6;" parent="1" vertex="1">
          <mxGeometry x="100" y="564" width="220" height="30" as="geometry">
            <mxRectangle width="220" height="30" as="alternateBounds" />
          </mxGeometry>
        </mxCell>
        <mxCell id="zaPjLl4jsTZHQY9-oWPF-40" value="Idiomas varchar(100)" style="shape=partialRectangle;overflow=hidden;connectable=0;fillColor=none;top=0;left=0;bottom=0;right=0;align=left;spacingLeft=6;" parent="1" vertex="1">
          <mxGeometry x="100" y="594" width="220" height="30" as="geometry">
            <mxRectangle width="220" height="30" as="alternateBounds" />
          </mxGeometry>
        </mxCell>
        <mxCell id="zaPjLl4jsTZHQY9-oWPF-68" value="" style="shape=waypoint;sketch=0;size=6;pointerEvents=1;points=[];fillColor=none;resizable=0;rotatable=0;perimeter=centerPerimeter;snapToPoint=1;" parent="1" vertex="1">
          <mxGeometry x="425" y="506" width="20" height="20" as="geometry" />
        </mxCell>
        <mxCell id="zaPjLl4jsTZHQY9-oWPF-69" value="IDcandidato" style="text;html=1;align=center;verticalAlign=middle;resizable=0;points=[];autosize=1;strokeColor=none;fillColor=none;" parent="1" vertex="1">
          <mxGeometry x="380" y="486" width="90" height="30" as="geometry" />
        </mxCell>
        <mxCell id="zaPjLl4jsTZHQY9-oWPF-88" value="" style="ellipse;whiteSpace=wrap;html=1;aspect=fixed;" parent="1" vertex="1">
          <mxGeometry x="480" y="616" width="20" height="20" as="geometry" />
        </mxCell>
        <mxCell id="zaPjLl4jsTZHQY9-oWPF-89" value="" style="ellipse;whiteSpace=wrap;html=1;aspect=fixed;" parent="1" vertex="1">
          <mxGeometry x="630" y="501" width="20" height="20" as="geometry" />
        </mxCell>
        <mxCell id="zaPjLl4jsTZHQY9-oWPF-90" value="" style="ellipse;whiteSpace=wrap;html=1;aspect=fixed;" parent="1" vertex="1">
          <mxGeometry x="610" y="555" width="20" height="20" as="geometry" />
        </mxCell>
        <mxCell id="zaPjLl4jsTZHQY9-oWPF-92" value="" style="ellipse;whiteSpace=wrap;html=1;aspect=fixed;" parent="1" vertex="1">
          <mxGeometry x="520" y="426" width="20" height="20" as="geometry" />
        </mxCell>
        <mxCell id="zaPjLl4jsTZHQY9-oWPF-93" value="" style="ellipse;whiteSpace=wrap;html=1;aspect=fixed;" parent="1" vertex="1">
          <mxGeometry x="570" y="446" width="20" height="20" as="geometry" />
        </mxCell>
        <mxCell id="zaPjLl4jsTZHQY9-oWPF-107" value="telefone" style="text;html=1;align=center;verticalAlign=middle;resizable=0;points=[];autosize=1;strokeColor=none;fillColor=none;" parent="1" vertex="1">
          <mxGeometry x="495" y="396" width="70" height="30" as="geometry" />
        </mxCell>
        <mxCell id="zaPjLl4jsTZHQY9-oWPF-108" value="email" style="text;html=1;align=center;verticalAlign=middle;resizable=0;points=[];autosize=1;strokeColor=none;fillColor=none;" parent="1" vertex="1">
          <mxGeometry x="555" y="421" width="50" height="30" as="geometry" />
        </mxCell>
        <mxCell id="zaPjLl4jsTZHQY9-oWPF-110" value="endereco" style="text;html=1;align=center;verticalAlign=middle;resizable=0;points=[];autosize=1;strokeColor=none;fillColor=none;" parent="1" vertex="1">
          <mxGeometry x="650" y="496" width="70" height="30" as="geometry" />
        </mxCell>
        <mxCell id="zaPjLl4jsTZHQY9-oWPF-112" value="idioma" style="text;html=1;align=center;verticalAlign=middle;resizable=0;points=[];autosize=1;strokeColor=none;fillColor=none;" parent="1" vertex="1">
          <mxGeometry x="470" y="634" width="60" height="30" as="geometry" />
        </mxCell>
        <mxCell id="zaPjLl4jsTZHQY9-oWPF-113" value="competencias" style="text;html=1;align=center;verticalAlign=middle;resizable=0;points=[];autosize=1;strokeColor=none;fillColor=none;" parent="1" vertex="1">
          <mxGeometry x="620" y="550" width="100" height="30" as="geometry" />
        </mxCell>
        <mxCell id="mfPcfbEMldCuhAB-tBuz-4" value="" style="ellipse;whiteSpace=wrap;html=1;aspect=fixed;" parent="1" vertex="1">
          <mxGeometry x="475" y="451" width="20" height="20" as="geometry" />
        </mxCell>
        <mxCell id="mfPcfbEMldCuhAB-tBuz-5" value="Nome" style="text;html=1;align=center;verticalAlign=middle;resizable=0;points=[];autosize=1;strokeColor=none;fillColor=none;" parent="1" vertex="1">
          <mxGeometry x="455" y="421" width="60" height="30" as="geometry" />
        </mxCell>
        <mxCell id="pTbfil5Q928uzp2Atuwe-21" style="edgeStyle=none;curved=1;rounded=0;orthogonalLoop=1;jettySize=auto;html=1;exitX=0;exitY=0;exitDx=0;exitDy=32;exitPerimeter=0;fontSize=12;startSize=8;endSize=8;" parent="1" source="pTbfil5Q928uzp2Atuwe-1" target="pTbfil5Q928uzp2Atuwe-16" edge="1">
          <mxGeometry relative="1" as="geometry" />
        </mxCell>
        <mxCell id="pTbfil5Q928uzp2Atuwe-1" value="Factory" style="shape=folder;fontStyle=1;spacingTop=10;tabWidth=40;tabHeight=14;tabPosition=left;html=1;whiteSpace=wrap;" parent="1" vertex="1">
          <mxGeometry x="1120" y="-250" width="70" height="50" as="geometry" />
        </mxCell>
        <mxCell id="pTbfil5Q928uzp2Atuwe-29" style="edgeStyle=none;curved=1;rounded=0;orthogonalLoop=1;jettySize=auto;html=1;exitX=0.5;exitY=1;exitDx=0;exitDy=0;exitPerimeter=0;fontSize=12;startSize=8;endSize=8;entryX=-0.016;entryY=0.339;entryDx=0;entryDy=0;entryPerimeter=0;" parent="1" source="pTbfil5Q928uzp2Atuwe-2" target="pTbfil5Q928uzp2Atuwe-19" edge="1">
          <mxGeometry relative="1" as="geometry">
            <mxPoint x="1395" y="-60" as="targetPoint" />
            <Array as="points">
              <mxPoint x="1390" y="-80" />
            </Array>
          </mxGeometry>
        </mxCell>
        <mxCell id="pTbfil5Q928uzp2Atuwe-30" style="edgeStyle=none;curved=1;rounded=0;orthogonalLoop=1;jettySize=auto;html=1;exitX=0.25;exitY=1;exitDx=0;exitDy=0;exitPerimeter=0;entryX=0;entryY=0.25;entryDx=0;entryDy=0;fontSize=12;startSize=8;endSize=8;" parent="1" source="pTbfil5Q928uzp2Atuwe-2" target="pTbfil5Q928uzp2Atuwe-26" edge="1">
          <mxGeometry relative="1" as="geometry">
            <Array as="points">
              <mxPoint x="1370" y="-40" />
            </Array>
          </mxGeometry>
        </mxCell>
        <mxCell id="pTbfil5Q928uzp2Atuwe-31" style="edgeStyle=none;curved=1;rounded=0;orthogonalLoop=1;jettySize=auto;html=1;exitX=0;exitY=0;exitDx=0;exitDy=50;exitPerimeter=0;entryX=0;entryY=0.25;entryDx=0;entryDy=0;fontSize=12;startSize=8;endSize=8;" parent="1" source="pTbfil5Q928uzp2Atuwe-2" target="pTbfil5Q928uzp2Atuwe-27" edge="1">
          <mxGeometry relative="1" as="geometry">
            <Array as="points">
              <mxPoint x="1350" y="10" />
            </Array>
          </mxGeometry>
        </mxCell>
        <mxCell id="pTbfil5Q928uzp2Atuwe-2" value="Dao&lt;div&gt;&amp;nbsp;&lt;/div&gt;" style="shape=folder;fontStyle=1;spacingTop=10;tabWidth=40;tabHeight=14;tabPosition=left;html=1;whiteSpace=wrap;" parent="1" vertex="1">
          <mxGeometry x="1360" y="-170" width="70" height="50" as="geometry" />
        </mxCell>
        <mxCell id="pTbfil5Q928uzp2Atuwe-3" value="Model" style="shape=folder;fontStyle=1;spacingTop=10;tabWidth=40;tabHeight=14;tabPosition=left;html=1;whiteSpace=wrap;" parent="1" vertex="1">
          <mxGeometry x="1160" y="-170" width="70" height="50" as="geometry" />
        </mxCell>
        <mxCell id="pTbfil5Q928uzp2Atuwe-11" style="edgeStyle=none;curved=1;rounded=0;orthogonalLoop=1;jettySize=auto;html=1;exitX=0;exitY=0;exitDx=40;exitDy=14;exitPerimeter=0;entryX=0;entryY=1;entryDx=0;entryDy=0;fontSize=12;startSize=8;endSize=8;" parent="1" source="pTbfil5Q928uzp2Atuwe-4" target="pTbfil5Q928uzp2Atuwe-10" edge="1">
          <mxGeometry relative="1" as="geometry" />
        </mxCell>
        <mxCell id="pTbfil5Q928uzp2Atuwe-4" value="Services" style="shape=folder;fontStyle=1;spacingTop=10;tabWidth=40;tabHeight=14;tabPosition=left;html=1;whiteSpace=wrap;" parent="1" vertex="1">
          <mxGeometry x="1420" y="-250" width="70" height="50" as="geometry" />
        </mxCell>
        <mxCell id="pTbfil5Q928uzp2Atuwe-22" style="edgeStyle=none;curved=1;rounded=0;orthogonalLoop=1;jettySize=auto;html=1;exitX=0;exitY=0;exitDx=0;exitDy=23;exitPerimeter=0;fontSize=12;startSize=8;endSize=8;" parent="1" source="pTbfil5Q928uzp2Atuwe-5" target="pTbfil5Q928uzp2Atuwe-1" edge="1">
          <mxGeometry relative="1" as="geometry" />
        </mxCell>
        <mxCell id="pTbfil5Q928uzp2Atuwe-5" value="codedont&lt;div&gt;blow&lt;/div&gt;" style="shape=folder;fontStyle=1;spacingTop=10;tabWidth=40;tabHeight=14;tabPosition=left;html=1;whiteSpace=wrap;" parent="1" vertex="1">
          <mxGeometry x="1280" y="-250" width="70" height="50" as="geometry" />
        </mxCell>
        <mxCell id="pTbfil5Q928uzp2Atuwe-6" value="&lt;p style=&quot;margin:0px;margin-top:4px;text-align:center;&quot;&gt;&lt;b&gt;Main&lt;/b&gt;&lt;/p&gt;&lt;hr size=&quot;1&quot; style=&quot;border-style:solid;&quot;&gt;&lt;p style=&quot;margin:0px;margin-left:4px;&quot;&gt;+ main(String[] args): void&lt;/p&gt;&lt;hr size=&quot;1&quot; style=&quot;border-style:solid;&quot;&gt;&lt;p style=&quot;margin:0px;margin-left:4px;&quot;&gt;- i1: InputDocuments&lt;/p&gt;&lt;p style=&quot;margin:0px;margin-left:4px;&quot;&gt;- api: OllamaAPI&lt;/p&gt;" style="verticalAlign=top;align=left;overflow=fill;html=1;whiteSpace=wrap;" parent="1" vertex="1">
          <mxGeometry x="1235" y="-410" width="160" height="90" as="geometry" />
        </mxCell>
        <mxCell id="pTbfil5Q928uzp2Atuwe-8" style="edgeStyle=none;curved=1;rounded=0;orthogonalLoop=1;jettySize=auto;html=1;exitX=0;exitY=0;exitDx=40;exitDy=14;exitPerimeter=0;entryX=0.544;entryY=1.022;entryDx=0;entryDy=0;entryPerimeter=0;fontSize=12;startSize=8;endSize=8;" parent="1" source="pTbfil5Q928uzp2Atuwe-5" target="pTbfil5Q928uzp2Atuwe-6" edge="1">
          <mxGeometry relative="1" as="geometry" />
        </mxCell>
        <mxCell id="pTbfil5Q928uzp2Atuwe-9" style="edgeStyle=none;curved=1;rounded=0;orthogonalLoop=1;jettySize=auto;html=1;exitX=1;exitY=0.5;exitDx=0;exitDy=0;fontSize=12;startSize=8;endSize=8;" parent="1" source="pTbfil5Q928uzp2Atuwe-6" target="pTbfil5Q928uzp2Atuwe-6" edge="1">
          <mxGeometry relative="1" as="geometry" />
        </mxCell>
        <mxCell id="pTbfil5Q928uzp2Atuwe-10" value="&lt;p style=&quot;margin:0px;margin-top:4px;text-align:center;&quot;&gt;&lt;b&gt;InputDocuments&lt;/b&gt;&lt;/p&gt;&lt;hr size=&quot;1&quot; style=&quot;border-style:solid;&quot;&gt;&lt;p style=&quot;margin:0px;margin-left:4px;&quot;&gt;+ selectFile(): Connection&lt;/p&gt;" style="verticalAlign=top;align=left;overflow=fill;html=1;whiteSpace=wrap;" parent="1" vertex="1">
          <mxGeometry x="1540" y="-400" width="160" height="60" as="geometry" />
        </mxCell>
        <mxCell id="pTbfil5Q928uzp2Atuwe-13" value="&lt;p style=&quot;margin:0px;margin-top:4px;text-align:center;&quot;&gt;&lt;b&gt;OllamaAPI&lt;/b&gt;&lt;/p&gt;&lt;hr size=&quot;1&quot; style=&quot;border-style:solid;&quot;&gt;&lt;p style=&quot;margin:0px;margin-left:4px;&quot;&gt;- host: String&lt;/p&gt;&lt;p style=&quot;margin:0px;margin-left:4px;&quot;&gt;- model: String&lt;/p&gt;&lt;p style=&quot;margin:0px;margin-left:4px;&quot;&gt;- ollamaAPI: OllamaAPI&lt;/p&gt;&lt;hr size=&quot;1&quot; style=&quot;border-style:solid;&quot;&gt;&lt;p style=&quot;margin:0px;margin-left:4px;&quot;&gt;+ processFile(String): String&lt;/p&gt;" style="verticalAlign=top;align=left;overflow=fill;html=1;whiteSpace=wrap;" parent="1" vertex="1">
          <mxGeometry x="1540" y="-280" width="160" height="110" as="geometry" />
        </mxCell>
        <mxCell id="pTbfil5Q928uzp2Atuwe-14" style="edgeStyle=none;curved=1;rounded=0;orthogonalLoop=1;jettySize=auto;html=1;exitX=0;exitY=0;exitDx=70;exitDy=32;exitPerimeter=0;entryX=-0.006;entryY=0.573;entryDx=0;entryDy=0;entryPerimeter=0;fontSize=12;startSize=8;endSize=8;" parent="1" source="pTbfil5Q928uzp2Atuwe-4" target="pTbfil5Q928uzp2Atuwe-13" edge="1">
          <mxGeometry relative="1" as="geometry" />
        </mxCell>
        <mxCell id="pTbfil5Q928uzp2Atuwe-16" value="&lt;p style=&quot;margin:0px;margin-top:4px;text-align:center;&quot;&gt;&lt;b&gt;ConnectionFactory&lt;/b&gt;&lt;/p&gt;&lt;hr size=&quot;1&quot; style=&quot;border-style:solid;&quot;&gt;&lt;p style=&quot;margin:0px;margin-left:4px;&quot;&gt;+ getConnection(): Connection&lt;/p&gt;" style="verticalAlign=top;align=left;overflow=fill;html=1;whiteSpace=wrap;" parent="1" vertex="1">
          <mxGeometry x="910" y="-250" width="170" height="50" as="geometry" />
        </mxCell>
        <mxCell id="pTbfil5Q928uzp2Atuwe-19" value="&lt;p style=&quot;margin:0px;margin-top:4px;text-align:center;&quot;&gt;&lt;b&gt;CandidatoDAO&lt;/b&gt;&lt;/p&gt;&lt;hr size=&quot;1&quot; style=&quot;border-style:solid;&quot;&gt;&lt;p style=&quot;margin:0px;margin-left:4px;&quot;&gt;+ field: Type&lt;/p&gt;&lt;hr size=&quot;1&quot; style=&quot;border-style:solid;&quot;&gt;&lt;p style=&quot;margin:0px;margin-left:4px;&quot;&gt;+ method(): Type&lt;/p&gt;" style="verticalAlign=top;align=left;overflow=fill;html=1;whiteSpace=wrap;" parent="1" vertex="1">
          <mxGeometry x="1400" y="-100" width="160" height="90" as="geometry" />
        </mxCell>
        <mxCell id="pTbfil5Q928uzp2Atuwe-23" style="edgeStyle=none;curved=1;rounded=0;orthogonalLoop=1;jettySize=auto;html=1;exitX=0;exitY=0;exitDx=0;exitDy=50;exitPerimeter=0;entryX=0;entryY=0;entryDx=70;entryDy=14;entryPerimeter=0;fontSize=12;startSize=8;endSize=8;" parent="1" source="pTbfil5Q928uzp2Atuwe-5" target="pTbfil5Q928uzp2Atuwe-3" edge="1">
          <mxGeometry relative="1" as="geometry" />
        </mxCell>
        <mxCell id="pTbfil5Q928uzp2Atuwe-24" style="edgeStyle=none;curved=1;rounded=0;orthogonalLoop=1;jettySize=auto;html=1;exitX=0;exitY=0;exitDx=70;exitDy=23;exitPerimeter=0;entryX=0;entryY=0;entryDx=0;entryDy=23;entryPerimeter=0;fontSize=12;startSize=8;endSize=8;" parent="1" source="pTbfil5Q928uzp2Atuwe-5" target="pTbfil5Q928uzp2Atuwe-4" edge="1">
          <mxGeometry relative="1" as="geometry" />
        </mxCell>
        <mxCell id="pTbfil5Q928uzp2Atuwe-25" style="edgeStyle=none;curved=1;rounded=0;orthogonalLoop=1;jettySize=auto;html=1;exitX=0;exitY=0;exitDx=70;exitDy=50;exitPerimeter=0;entryX=0;entryY=0;entryDx=0;entryDy=0;entryPerimeter=0;fontSize=12;startSize=8;endSize=8;" parent="1" source="pTbfil5Q928uzp2Atuwe-5" target="pTbfil5Q928uzp2Atuwe-2" edge="1">
          <mxGeometry relative="1" as="geometry" />
        </mxCell>
        <mxCell id="pTbfil5Q928uzp2Atuwe-26" value="&lt;p style=&quot;margin:0px;margin-top:4px;text-align:center;&quot;&gt;&lt;b&gt;CurriculoDAO&lt;/b&gt;&lt;/p&gt;&lt;hr size=&quot;1&quot; style=&quot;border-style:solid;&quot;&gt;&lt;p style=&quot;margin:0px;margin-left:4px;&quot;&gt;+ field: Type&lt;/p&gt;&lt;hr size=&quot;1&quot; style=&quot;border-style:solid;&quot;&gt;&lt;p style=&quot;margin:0px;margin-left:4px;&quot;&gt;+ method(): Type&lt;/p&gt;" style="verticalAlign=top;align=left;overflow=fill;html=1;whiteSpace=wrap;" parent="1" vertex="1">
          <mxGeometry x="1400" width="160" height="90" as="geometry" />
        </mxCell>
        <mxCell id="pTbfil5Q928uzp2Atuwe-27" value="&lt;p style=&quot;margin:0px;margin-top:4px;text-align:center;&quot;&gt;&lt;b&gt;BoletimDAO&lt;/b&gt;&lt;/p&gt;&lt;hr size=&quot;1&quot; style=&quot;border-style:solid;&quot;&gt;&lt;p style=&quot;margin:0px;margin-left:4px;&quot;&gt;+ field: Type&amp;nbsp;&lt;/p&gt;&lt;hr size=&quot;1&quot; style=&quot;border-style:solid;&quot;&gt;&lt;p style=&quot;margin:0px;margin-left:4px;&quot;&gt;+ method(): Type&lt;/p&gt;" style="verticalAlign=top;align=left;overflow=fill;html=1;whiteSpace=wrap;" parent="1" vertex="1">
          <mxGeometry x="1400" y="100" width="160" height="90" as="geometry" />
        </mxCell>
        <mxCell id="pTbfil5Q928uzp2Atuwe-32" value="&lt;p style=&quot;margin:0px;margin-top:4px;text-align:center;&quot;&gt;&lt;b&gt;Class&lt;/b&gt;&lt;/p&gt;&lt;hr size=&quot;1&quot; style=&quot;border-style:solid;&quot;/&gt;&lt;p style=&quot;margin:0px;margin-left:4px;&quot;&gt;+ field: Type&lt;/p&gt;&lt;hr size=&quot;1&quot; style=&quot;border-style:solid;&quot;/&gt;&lt;p style=&quot;margin:0px;margin-left:4px;&quot;&gt;+ method(): Type&lt;/p&gt;" style="verticalAlign=top;align=left;overflow=fill;html=1;whiteSpace=wrap;" parent="1" vertex="1">
          <mxGeometry x="1020" y="-100" width="160" height="90" as="geometry" />
        </mxCell>
        <mxCell id="pTbfil5Q928uzp2Atuwe-33" value="&lt;p style=&quot;margin:0px;margin-top:4px;text-align:center;&quot;&gt;&lt;b&gt;Class&lt;/b&gt;&lt;/p&gt;&lt;hr size=&quot;1&quot; style=&quot;border-style:solid;&quot;/&gt;&lt;p style=&quot;margin:0px;margin-left:4px;&quot;&gt;+ field: Type&lt;/p&gt;&lt;hr size=&quot;1&quot; style=&quot;border-style:solid;&quot;/&gt;&lt;p style=&quot;margin:0px;margin-left:4px;&quot;&gt;+ method(): Type&lt;/p&gt;" style="verticalAlign=top;align=left;overflow=fill;html=1;whiteSpace=wrap;" parent="1" vertex="1">
          <mxGeometry x="1020" y="10" width="160" height="90" as="geometry" />
        </mxCell>
        <mxCell id="pTbfil5Q928uzp2Atuwe-34" value="&lt;p style=&quot;margin:0px;margin-top:4px;text-align:center;&quot;&gt;&lt;b&gt;Class&lt;/b&gt;&lt;/p&gt;&lt;hr size=&quot;1&quot; style=&quot;border-style:solid;&quot;/&gt;&lt;p style=&quot;margin:0px;margin-left:4px;&quot;&gt;+ field: Type&lt;/p&gt;&lt;hr size=&quot;1&quot; style=&quot;border-style:solid;&quot;/&gt;&lt;p style=&quot;margin:0px;margin-left:4px;&quot;&gt;+ method(): Type&lt;/p&gt;" style="verticalAlign=top;align=left;overflow=fill;html=1;whiteSpace=wrap;" parent="1" vertex="1">
          <mxGeometry x="1020" y="120" width="160" height="90" as="geometry" />
        </mxCell>
        <mxCell id="RXsYs79zKPawgFlZyip8-4" value="nome varchar(70) NOT NULL" style="shape=partialRectangle;overflow=hidden;connectable=0;fillColor=none;top=0;left=0;bottom=0;right=0;align=left;spacingLeft=6;" parent="1" vertex="1">
          <mxGeometry x="100" y="444" width="220" height="30" as="geometry">
            <mxRectangle width="220" height="30" as="alternateBounds" />
          </mxGeometry>
        </mxCell>
      </root>
    </mxGraphModel>
  </diagram>
</mxfile>
